<svg id="Layer_1" data-name="Layer 1" xmlns="http://www.w3.org/2000/svg" viewBox="0 0 256 256"><path d="M127.52,4.06,20.16,66,53,85l74.51-43L202,85l32.85-19-107.36-62Z" fill="#fcd34d" fill-rule="evenodd"/><path d="M127.52,252V214.07L53,171.05V85L20.16,66V190l53.68,31,53.68,31Z" fill="#f59e0b" fill-rule="evenodd"/><path d="M127.52,252V214.07l74.51-43-43.14-24.91-31.37,18.12V128l31.37-18.11L202,85h0l32.85-19V190L181.2,221l-53.68,31Z" fill="#fbbf24" fill-rule="evenodd"/><path d="M127.52,164.26V128L96.14,109.92v36.22l31.38,18.12Z" fill="#f59e0b" fill-rule="evenodd"/><path d="M96.14,109.92,127.52,128l31.37-18.11L127.52,91.8,96.14,109.92Z" fill="#fcd34d" fill-rule="evenodd"/></svg>