<svg id="Layer_1" data-name="Layer 1" xmlns="http://www.w3.org/2000/svg" viewBox="0 0 512 512"><path d="M256.12,17.23,49.24,136.67l63.3,36.55L256.12,90.33,399.7,173.22,463,136.67,256.12,17.23Z" fill="#fcd34d" fill-rule="evenodd"/><path d="M256.12,495V421.91L112.54,339V173.22l-63.3-36.55V375.56l103.44,59.72L256.12,495Z" fill="#f59e0b" fill-rule="evenodd"/><path d="M256.12,495V421.91L399.7,339l-83.13-48-60.45,34.9v-69.8l60.45-34.91,83.13-48h0L463,136.67V375.56L359.56,435.28,256.12,495Z" fill="#fbbf24" fill-rule="evenodd"/><path d="M256.12,325.92v-69.8l-60.46-34.91V291l60.46,34.9Z" fill="#f59e0b" fill-rule="evenodd"/><path d="M195.66,221.21l60.46,34.91,60.45-34.91-60.45-34.9-60.46,34.9Z" fill="#fcd34d" fill-rule="evenodd"/></svg>