<svg id="Layer_1" data-name="Layer 1" xmlns="http://www.w3.org/2000/svg" viewBox="0 0 432.08 499.12"><path d="M251.59,7,35.52,131.66l66.09,38.24,150-86.54L401.48,169.9l66.12-38.24L251.53,6.88Z" transform="translate(-35.52 -6.88)" fill="#fcd34d" fill-rule="evenodd"/><path d="M251.59,506V429.66l-150-86.58V169.9L35.52,131.66V381.22l108,62.39Z" transform="translate(-35.52 -6.88)" fill="#f59e0b" fill-rule="evenodd"/><path d="M251.59,506V429.66l150-86.54L314.72,293l-63.13,36.47v-73L314.72,220l86.76-50.09h0l66.12-38.24V381.22l-108,62.39Z" transform="translate(-35.52 -6.88)" fill="#fbbf24" fill-rule="evenodd"/><path d="M251.59,329.42v-73l-63.16-36.39V293Z" transform="translate(-35.52 -6.88)" fill="#f59e0b" fill-rule="evenodd"/><path d="M188.43,220.05l63.16,36.39L314.72,220l-63.13-36.4Z" transform="translate(-35.52 -6.88)" fill="#fcd34d" fill-rule="evenodd"/></svg>