<svg id="Layer_1" data-name="Layer 1" xmlns="http://www.w3.org/2000/svg" xmlns:xlink="http://www.w3.org/1999/xlink" viewBox="0 0 256 256"><defs><linearGradient id="linear-gradient" x1="-6720.27" y1="66.59" x2="-6654.82" y2="216.96" gradientTransform="matrix(-1, 0, 0, 1, -6539.04, 0)" gradientUnits="userSpaceOnUse"><stop offset="0" stop-color="#ffce45"/><stop offset="0.22" stop-color="#ffc21a"/><stop offset="1" stop-color="#6b4104"/></linearGradient><linearGradient id="linear-gradient-2" x1="-6664.01" y1="198.76" x2="-6615.52" y2="52.56" xlink:href="#linear-gradient"/><linearGradient id="linear-gradient-3" x1="-6772.57" y1="203.57" x2="-6721.6" y2="57.71" xlink:href="#linear-gradient"/><linearGradient id="linear-gradient-4" x1="-6611" y1="67.79" x2="-6541.75" y2="260.21" xlink:href="#linear-gradient"/></defs><path d="M119.84,164.66,142.05,91c4.33-14.13,11.41-20.76,20.66-20.76h42c-5.72,0-11.25,7-15.58,21.12L167,165c-4.33,14.14-11.41,20.77-20.66,20.77h-42C110,185.78,115.51,178.8,119.84,164.66Z" style="fill:url(#linear-gradient)"/><path d="M83.15,91.34C87.48,77.2,93,70.22,98.73,70.22s11.21,7.2,15.44,21.42L128,138.05l-8.15,26.61c-4.33,14.14-9.86,21.12-15.58,21.12s-11.2-7.2-15.44-21.42L75,118Z" style="fill:url(#linear-gradient-2)"/><path d="M200,181.54,181,118l8.15-26.61c4.33-14.14,9.86-21.12,15.58-21.12s11.2,7.2,15.44,21.42L247,181.54a3.12,3.12,0,0,1-3.16,4.24H205.64A6.29,6.29,0,0,1,200,181.54Z" style="fill:url(#linear-gradient-3)"/><path d="M56.7,70.22h42c-5.72,0-11.25,7-15.58,21.12l-27.09,90.2a6.31,6.31,0,0,1-5.7,4.24H12.2A3.12,3.12,0,0,1,9,181.54L36,91C40.37,76.85,47.45,70.22,56.7,70.22Z" style="fill:url(#linear-gradient-4)"/></svg>