<svg xmlns="http://www.w3.org/2000/svg" viewBox="0 0 210.71 175.78"><g id="Layer_2" data-name="Layer 2"><path d="M89.23,189.1l25.3,20.29c2.27,1.82,4,3,6.27,2.09l71.41-27.76c3.85-1.49,5.46-3.11,6-6.66l11.1-74.85A8.65,8.65,0,0,0,206.45,95l-59-47.33a8.34,8.34,0,0,0-7.69-1.2L70.14,73.56A7.72,7.72,0,0,0,63.93,80L62.34,90.72m-6.63,44.72L53,153.5c-.46,3.28.09,6.67,2.46,8.56l17,13.63M60.35,104.14,57.69,122m80.58-53.54-9.88,59.27L77.55,146.29m50.84-18.54,48.9,38.73M21.53,91H84.14M3.65,122.34H70.72M26,176h76" transform="translate(-3.65 -41)" fill="none" stroke="#111827" stroke-miterlimit="10" stroke-width="10"/></g></svg>