<svg id="Layer_1" data-name="Layer 1" xmlns="http://www.w3.org/2000/svg" viewBox="0 0 256 256"><path d="M127.72,3,19.54,65.46l33.1,19.11,75.08-43.35,75.07,43.35,33.1-19.11L127.72,3Z" fill="#97999b" fill-rule="evenodd"/><path d="M127.72,252.82V214.6L52.64,171.26V84.57L19.54,65.46V190.37L73.63,221.6l54.09,31.22Z" fill="#616366" fill-rule="evenodd"/><path d="M127.72,252.82V214.6l75.07-43.34-43.46-25.1-31.61,18.25v-36.5l31.61-18.25,43.46-25.09h0l33.1-19.11V190.37L181.8,221.6l-54.08,31.22Z" fill="#7c7d7f" fill-rule="evenodd"/><path d="M127.72,164.41v-36.5L96.1,109.66v36.5l31.62,18.25Z" fill="#616366" fill-rule="evenodd"/><path d="M96.1,109.66l31.62,18.25,31.61-18.25L127.72,91.41,96.1,109.66Z" fill="#97999b" fill-rule="evenodd"/></svg>